# xmcd
# 
# Track frame offsets:
#     150
#     35191
#     65941
#     101266
#     138538
#     160729
#     191116
#     241748
#     277320
#     308841
# 
# Disc length: 4547
# 
# Revision: 1
# Processed by: cddbd v1.5.2PL0 Copyright (c) Steve Scherf et al.
# Submitted via: fre:ac v1.0.17
# 
DISCID=9711c10a
DTITLE=Thomas Kinkade - Quiet Moods - Disc 1
DYEAR=2007
DGENRE=Meditation
TTITLE0=Source Of The Stream
TTITLE1=Little Bear Camp
TTITLE2=Retreat At Oconaluftee
TTITLE3=Night Life
TTITLE4=Pioneer Township
TTITLE5=Restoring Nature
TTITLE6=Calming Stream
TTITLE7=Bird Song
TTITLE8=Dance In The Meadow
TTITLE9=Freedom
EXTD=YEAR: 2007
EXTT0=
EXTT1=
EXTT2=
EXTT3=
EXTT4=
EXTT5=
EXTT6=
EXTT7=
EXTT8=
EXTT9=
PLAYORDER=
